<mxfile host="65bd71144e">
    <diagram id="QfNaJ_SzX0Z1u2enrED2" name="Page-1">
        <mxGraphModel dx="819" dy="453" grid="1" gridSize="10" guides="1" tooltips="1" connect="1" arrows="1" fold="1" page="1" pageScale="1" pageWidth="850" pageHeight="1100" math="0" shadow="0">
            <root>
                <mxCell id="0"/>
                <mxCell id="1" parent="0"/>
                <mxCell id="2" value="Event Streams (Kafka)" style="rounded=1;whiteSpace=wrap;html=1;sketch=1;verticalAlign=top;fillColor=#dae8fc;strokeColor=#6c8ebf;arcSize=4;" parent="1" vertex="1">
                    <mxGeometry x="60" y="20" width="630" height="180" as="geometry"/>
                </mxCell>
                <mxCell id="3" value="" style="group" parent="1" vertex="1" connectable="0">
                    <mxGeometry x="115" y="31" width="64" height="20" as="geometry"/>
                </mxCell>
                <mxCell id="4" value="" style="shape=cylinder3;whiteSpace=wrap;html=1;boundedLbl=1;backgroundOutline=1;size=3.16668701171875;rotation=90;fillColor=#f5f5f5;fontColor=#333333;strokeColor=#666666;" parent="3" vertex="1">
                    <mxGeometry width="20" height="20" as="geometry"/>
                </mxCell>
                <mxCell id="5" value="" style="shape=cylinder3;whiteSpace=wrap;html=1;boundedLbl=1;backgroundOutline=1;size=3.16668701171875;rotation=90;" parent="3" vertex="1">
                    <mxGeometry x="13" width="20" height="20" as="geometry"/>
                </mxCell>
                <mxCell id="6" value="" style="shape=cylinder3;whiteSpace=wrap;html=1;boundedLbl=1;backgroundOutline=1;size=3.16668701171875;rotation=90;fillColor=#f5f5f5;fontColor=#333333;strokeColor=#666666;" parent="3" vertex="1">
                    <mxGeometry x="27" width="20" height="20" as="geometry"/>
                </mxCell>
                <mxCell id="7" value="" style="shape=cylinder3;whiteSpace=wrap;html=1;boundedLbl=1;backgroundOutline=1;size=3.16668701171875;rotation=90;" parent="3" vertex="1">
                    <mxGeometry x="41" width="20" height="20" as="geometry"/>
                </mxCell>
                <mxCell id="8" value="" style="shape=cylinder3;whiteSpace=wrap;html=1;boundedLbl=1;backgroundOutline=1;size=3.16668701171875;rotation=90;" parent="3" vertex="1">
                    <mxGeometry x="49" y="5" width="20" height="10" as="geometry"/>
                </mxCell>
                <mxCell id="9" style="edgeStyle=orthogonalEdgeStyle;html=1;entryX=0.5;entryY=1;entryDx=0;entryDy=0;entryPerimeter=0;sketch=1;" parent="1" source="11" target="14" edge="1">
                    <mxGeometry relative="1" as="geometry"/>
                </mxCell>
                <mxCell id="10" style="edgeStyle=orthogonalEdgeStyle;sketch=1;html=1;entryX=0.5;entryY=1;entryDx=0;entryDy=0;entryPerimeter=0;" parent="1" source="11" target="30" edge="1">
                    <mxGeometry relative="1" as="geometry"/>
                </mxCell>
                <mxCell id="11" value="Streaming Processing" style="rounded=0;whiteSpace=wrap;html=1;fillColor=#d5e8d4;strokeColor=#82b366;shadow=1;" parent="1" vertex="1">
                    <mxGeometry x="220" y="230" width="110" height="40" as="geometry"/>
                </mxCell>
                <mxCell id="12" value="" style="group" parent="1" vertex="1" connectable="0">
                    <mxGeometry x="356" y="50" width="64" height="41" as="geometry"/>
                </mxCell>
                <mxCell id="13" value="" style="group" parent="12" vertex="1" connectable="0">
                    <mxGeometry x="-2" width="64" height="20" as="geometry"/>
                </mxCell>
                <mxCell id="14" value="" style="shape=cylinder3;whiteSpace=wrap;html=1;boundedLbl=1;backgroundOutline=1;size=3.16668701171875;rotation=90;fillColor=#f5f5f5;fontColor=#333333;strokeColor=#666666;" parent="13" vertex="1">
                    <mxGeometry width="20" height="20" as="geometry"/>
                </mxCell>
                <mxCell id="15" value="" style="shape=cylinder3;whiteSpace=wrap;html=1;boundedLbl=1;backgroundOutline=1;size=3.16668701171875;rotation=90;" parent="13" vertex="1">
                    <mxGeometry x="13" width="20" height="20" as="geometry"/>
                </mxCell>
                <mxCell id="16" value="" style="shape=cylinder3;whiteSpace=wrap;html=1;boundedLbl=1;backgroundOutline=1;size=3.16668701171875;rotation=90;fillColor=#f5f5f5;fontColor=#333333;strokeColor=#666666;" parent="13" vertex="1">
                    <mxGeometry x="27" width="20" height="20" as="geometry"/>
                </mxCell>
                <mxCell id="17" value="" style="shape=cylinder3;whiteSpace=wrap;html=1;boundedLbl=1;backgroundOutline=1;size=3.16668701171875;rotation=90;" parent="13" vertex="1">
                    <mxGeometry x="41" width="20" height="20" as="geometry"/>
                </mxCell>
                <mxCell id="18" value="" style="shape=cylinder3;whiteSpace=wrap;html=1;boundedLbl=1;backgroundOutline=1;size=3.16668701171875;rotation=90;" parent="13" vertex="1">
                    <mxGeometry x="49" y="5" width="20" height="10" as="geometry"/>
                </mxCell>
                <mxCell id="19" value="lf-tx-a" style="text;html=1;align=center;verticalAlign=middle;resizable=0;points=[];autosize=1;strokeColor=none;fillColor=none;fontSize=9;" parent="12" vertex="1">
                    <mxGeometry x="10" y="21" width="40" height="20" as="geometry"/>
                </mxCell>
                <mxCell id="20" style="edgeStyle=orthogonalEdgeStyle;html=1;entryX=0;entryY=0.5;entryDx=0;entryDy=0;exitX=0.5;exitY=0;exitDx=0;exitDy=0;exitPerimeter=0;sketch=1;" parent="1" source="8" target="11" edge="1">
                    <mxGeometry relative="1" as="geometry">
                        <mxPoint x="185" y="41" as="sourcePoint"/>
                    </mxGeometry>
                </mxCell>
                <mxCell id="21" value="" style="shape=image;verticalLabelPosition=bottom;labelBackgroundColor=#ffffff;verticalAlign=top;aspect=fixed;imageAspect=0;image=data:image/png,iVBORw0KGgoAAAANSUhEUgAAACYAAAAyCAYAAAAweqkjAAAAAXNSR0IArs4c6QAAAHhlWElmTU0AKgAAAAgABAEaAAUAAAABAAAAPgEbAAUAAAABAAAARgEoAAMAAAABAAIAAIdpAAQAAAABAAAATgAAAAAAAACQAAAAAQAAAJAAAAABAAOgAQADAAAAAQABAACgAgAEAAAAAQAAACagAwAEAAAAAQAAADIAAAAAwx+puAAAAAlwSFlzAAAWJQAAFiUBSVIk8AAACWJJREFUWAntWHtQlNcV/33sm0cA5SFggAg+GkVr6wxJ8FES/8AxEKt2Rq221SS+UseIj/GVVJpxrNFpox1NJ1MnEycZM5mItY6NrXYcqxGCxjYpAZMKKkIFFRAX9r17e87d/Vxg2e1+ip380cvcvfe73znn/u553fMB8Qja3bt3xdatW8WTYwvEqlWrxM2bNzXtAm6aOKIg9nq9YsaMGQKpkwSmVwplxI9EaWlpFJxBkkcCzGazifT0dIGp7wksEQJlNcIclxTcNYoZA4uR6Abxx2AwwGg0Ai1/Aez/Bpr/hOEZqdp3iOIAmkkaGhpESkqKUBRFDBs2TJw/f16TDHkKTRwaiM+dOyfi4uLEmTNnNHD5SRlYRFPW1dVhyZIl2LFjB3p6ejSZIzY2FqQxpKY+gBkjAbt06RKeKZ6Jd2visHn/GUyd9gO4XC5N4B6GOKzGVq5cia6UGUDhb4Fp7+PS5VacPXv2YfbSxBsW2MiRI4HuZsBLJrQ2AB6bJrPExPhFq6MmVESsD8dw8OBBnMrMQuuhDAJFJvQ5QQ6N8ePHh2OR6/XtLtTeceNikxnuoqX4/TdGjHXYUJBmwIR0PfQxSkR+9WVYYOy4Fy9ewPHjx0Ghj+rqamzevBkJCQlYtGiRyg8v5dDr97z48rYLX9xyoscl4BNAq02BSEjDjR4FHU1OnGp0QU+YxqcZMSXHiEmZegqO+2JCJmGBMWVWVhaWLl0qmWbNmoXs7GwsX75cRiiPXgJwtMGGK51uODwCXh+ZgDTiphf39yTgjCAGAk5PDKpvuPFZkwcZ8TpsKbYgNW5gb4oIrPcx2FeWLVuG5uZmrF+/HjpzHPSFs3Db5gHhAVtIakAhUDQx0Ai3AwZ6wdh8gqARoc+nyAM0tPuw8RM7yqeYMTZd13srOVc4pYWsRljweDzY9/bb2PLa6yhbux2Tnp8vN3J7AJcXKEgxoiDViJYrl1FWVoYTfz6JpIxcXGhx469X3GRqclkPgSNaL4E06RRsLDbj6ZwgODqYErXGVKweRYfk6QswpfYaPt6+FnqDERNL5mJUkh7PZsciweA3jcNEmutpR4rJi9GpeoylXjbahPf/4cTZRg+sbkVqr5sOtO9TF7KTTMhKDJo1OFN3jjCyas+39cBBHlT6ygbMXvdLHHlzI7qrjmLmE3H3QYUTMcQSg58/ZcGrRRa4CBBrjU3b1Cmw67SbvDDYNAG7bfegpcdNDg6qIAwonrcYs3/6EipWvYiPPjzEtV1QcpgZ+2JRrh6/KbXIQPGwSb0Kqq768EkdoQ00Tab8ustJbAI6Asa+nZtsxqId2zDh8TSsXr0aHCDz5s2TojkAuOt0Qd9RN+VxQqYOswsMeK/GI32UA+MPX3oxNc9PHzUwVkazzSlPyVHIoTY9K55nWLNmDaicxvz588k0PuTl5WH37t0yrZSXl2PdunUoLCyEyWSS9OrP7AI9PrjglUHjo+R3uY3KuC6/1qM25dVuJ3SkATYj93FDLKp8qRlOvlyFrFixAkVFRbBYLNi5cycyMzNldHLes1qt93l4khqvYOaTOulvbjJnh02g7mbAHaicERUVFSL3iRFiwYIfC/6QGKh92mYVR653isprneIw9RvdrhCy2tpaYTabRU1NTZ93XCiSmQVdc33W+aHxjlfkV9jEmDfsYjT1LcfcEpmyfft28dreo/CNehloOo6CxxrkNcT1lNrYV6o7nLBSduc/HUXl95IMSAqkBpVu3LhxKCkpwYEDB6S/qes87tq1C5WVlaiqquq9LK+v8TscdHNI78DE4QoOv2RW9Pv2/w6+CfuB4c8DGc/inx/lyaunDzc/jPouYAqYz+MGGr8CnPYQMvoQCQHFRMXFxdK0/Rk4SmONCqwOvwk/b/KP+uLiafjgs8PAY/nAtUrpG3v37kVvjbGwBiUOTo40mutIa9k+O8zyMvJvRVbB4sWL4XA4/Av9fltbW5GYmNhv1f/Y41DgooRLnwh4PFnBNV5ubGwUdDkzTNlPnDgR4ge8cOGOVZxu7ZL9b7e6RIfTHUK3adMmkZ+fL7q7u0PeJScni23btoWss5iha51i6Dp/n/tOwMeYsqurC/X19cjJyUFGBtVfA7RvrA602V0yAllrIxPMSDMbQignT54stcZ5LTc3Fy0tLdizZ49MJ8eOHQMB78NT1ShQ/GsPTJS42H9ffU6HN8qoQAo5QpgFq9sjzt26J6pu3xPV1C/fsw1I2dHRIRYuXCgosQrKW0Kv14s5c+YMqEUWsPCATxhXeIR5pVvEvuIWf/yCqzlO4NT6HCHCw987e2RhyBojd8OYBAti9QNn9vb2djQ1NYGDgXPZQK21i2Jqq4DNyaWSwLBEBafKYzAmQ2N1MTzWiGYyJ2dljqZmuxN58RaZePtvPHToUHCP1A5/DtjsZDWSxeoZmaZgeLKfI+rMz+SJBj0shIhKKAmGVX3H1bcq8Iv9779c7R48zzUZVRiU9bnKmPt9BXGBW0sTMCOBSjMZSFt0NVHnK8rm8eGW0wVP9B4hUW+mDFXTGDzAiFQFP3sm+KwJGLMNIWBDqOThCkNqjsAyqLtUwjrpAvdFAfBUHfDmySAIEom35lOi7XXHR11dBMUA6ZQmbpPDOggIuz5rjmPITnbxSlNT6UzPMTIdCxipHGItc7tLl8XqQzQJll4oKQCe+458ff/ngYDxFmkmIzqpDGUt8bOOAAX2lgBvUInEGqX4RTapIp6it9MGzHwLqGvhdX+LNwO/KOVrSV3xjw8ETBWRbNRLYKw5NiH7BWOx02X/NX3SqX4yhP5nBq8OL74LVDWo3ICZwBxaBkzMCa6ps4cCxkJMZCbu7GduAsgms9MdX9/m9ZuP0wAVKqvI2Y9cIgYO5UBbX0IaDPNh/9DA1E04SvVURvO+TpcP9c1+v7LTl/mHJxXUXqUXKihS68vTgA0z/IlaldF7HDRgqlA2pY2qha+uGgkHlcs3Y+C20moAFPvhwqeBd36icgw8Djow3sbu0OFyA/1Thb6AyMKUQQPeFtDUr+YMDKb36iMBRq5G/+SjRKKaLrBjxQvA62W9tw8/fyTAuIQJpDC58zCqDyt+CCwpCg+k/5tHAqxwBPAU9errQG4ScHoDjZHv8/64tJU9IdwRFpyU2f/VBuSnUb4KrScjcHKkUtNSj0WUNogvGZeanAdR7OCI+j8wrXr81mpM60H+Z/T/Adw18VUnBx/NAAAAAElFTkSuQmCC;" parent="1" vertex="1">
                    <mxGeometry x="652" y="142" width="38" height="50" as="geometry"/>
                </mxCell>
                <mxCell id="22" value="" style="group" parent="1" vertex="1" connectable="0">
                    <mxGeometry x="115" y="101" width="64" height="49" as="geometry"/>
                </mxCell>
                <mxCell id="23" value="" style="shape=cylinder3;whiteSpace=wrap;html=1;boundedLbl=1;backgroundOutline=1;size=3.16668701171875;rotation=90;fillColor=#f5f5f5;fontColor=#333333;strokeColor=#666666;" parent="22" vertex="1">
                    <mxGeometry width="20" height="29" as="geometry"/>
                </mxCell>
                <mxCell id="24" value="" style="shape=cylinder3;whiteSpace=wrap;html=1;boundedLbl=1;backgroundOutline=1;size=3.16668701171875;rotation=90;" parent="22" vertex="1">
                    <mxGeometry x="13" width="20" height="29" as="geometry"/>
                </mxCell>
                <mxCell id="25" value="" style="shape=cylinder3;whiteSpace=wrap;html=1;boundedLbl=1;backgroundOutline=1;size=3.16668701171875;rotation=90;fillColor=#f5f5f5;fontColor=#333333;strokeColor=#666666;" parent="22" vertex="1">
                    <mxGeometry x="27" width="20" height="29" as="geometry"/>
                </mxCell>
                <mxCell id="44" value="categories" style="text;html=1;align=center;verticalAlign=middle;resizable=0;points=[];autosize=1;strokeColor=none;fillColor=none;fontSize=10;" parent="22" vertex="1">
                    <mxGeometry x="-7" y="29" width="60" height="20" as="geometry"/>
                </mxCell>
                <mxCell id="26" style="edgeStyle=orthogonalEdgeStyle;sketch=1;html=1;entryX=0;entryY=0.5;entryDx=0;entryDy=0;" parent="1" source="25" target="11" edge="1">
                    <mxGeometry relative="1" as="geometry"/>
                </mxCell>
                <mxCell id="28" value="" style="group" parent="1" vertex="1" connectable="0">
                    <mxGeometry x="357" y="101" width="64" height="41" as="geometry"/>
                </mxCell>
                <mxCell id="29" value="" style="group" parent="28" vertex="1" connectable="0">
                    <mxGeometry x="-2" width="64" height="20" as="geometry"/>
                </mxCell>
                <mxCell id="30" value="" style="shape=cylinder3;whiteSpace=wrap;html=1;boundedLbl=1;backgroundOutline=1;size=3.16668701171875;rotation=90;fillColor=#f5f5f5;fontColor=#333333;strokeColor=#666666;" parent="29" vertex="1">
                    <mxGeometry width="20" height="20" as="geometry"/>
                </mxCell>
                <mxCell id="31" value="" style="shape=cylinder3;whiteSpace=wrap;html=1;boundedLbl=1;backgroundOutline=1;size=3.16668701171875;rotation=90;" parent="29" vertex="1">
                    <mxGeometry x="13" width="20" height="20" as="geometry"/>
                </mxCell>
                <mxCell id="32" value="" style="shape=cylinder3;whiteSpace=wrap;html=1;boundedLbl=1;backgroundOutline=1;size=3.16668701171875;rotation=90;fillColor=#f5f5f5;fontColor=#333333;strokeColor=#666666;" parent="29" vertex="1">
                    <mxGeometry x="27" width="20" height="20" as="geometry"/>
                </mxCell>
                <mxCell id="33" value="" style="shape=cylinder3;whiteSpace=wrap;html=1;boundedLbl=1;backgroundOutline=1;size=3.16668701171875;rotation=90;" parent="29" vertex="1">
                    <mxGeometry x="41" width="20" height="20" as="geometry"/>
                </mxCell>
                <mxCell id="34" value="" style="shape=cylinder3;whiteSpace=wrap;html=1;boundedLbl=1;backgroundOutline=1;size=3.16668701171875;rotation=90;" parent="29" vertex="1">
                    <mxGeometry x="49" y="5" width="20" height="10" as="geometry"/>
                </mxCell>
                <mxCell id="35" value="lf-tx-b" style="text;html=1;align=center;verticalAlign=middle;resizable=0;points=[];autosize=1;strokeColor=none;fillColor=none;fontSize=9;" parent="28" vertex="1">
                    <mxGeometry x="10" y="21" width="40" height="20" as="geometry"/>
                </mxCell>
                <mxCell id="37" value="lf-raw-tx" style="text;html=1;align=center;verticalAlign=middle;resizable=0;points=[];autosize=1;strokeColor=none;fillColor=none;fontSize=10;" parent="1" vertex="1">
                    <mxGeometry x="120" y="60.5" width="50" height="20" as="geometry"/>
                </mxCell>
                <mxCell id="38" value="" style="group" parent="1" vertex="1" connectable="0">
                    <mxGeometry x="430" y="150" width="64" height="29" as="geometry"/>
                </mxCell>
                <mxCell id="39" value="" style="shape=cylinder3;whiteSpace=wrap;html=1;boundedLbl=1;backgroundOutline=1;size=3.16668701171875;rotation=90;fillColor=#f5f5f5;fontColor=#333333;strokeColor=#FF6666;" parent="38" vertex="1">
                    <mxGeometry width="20" height="29" as="geometry"/>
                </mxCell>
                <mxCell id="40" value="" style="shape=cylinder3;whiteSpace=wrap;html=1;boundedLbl=1;backgroundOutline=1;size=3.16668701171875;rotation=90;strokeColor=#FF6666;" parent="38" vertex="1">
                    <mxGeometry x="13" width="20" height="29" as="geometry"/>
                </mxCell>
                <mxCell id="41" value="" style="shape=cylinder3;whiteSpace=wrap;html=1;boundedLbl=1;backgroundOutline=1;size=3.16668701171875;rotation=90;fillColor=#f5f5f5;fontColor=#333333;strokeColor=#FF3333;" parent="38" vertex="1">
                    <mxGeometry x="27" width="20" height="29" as="geometry"/>
                </mxCell>
                <mxCell id="42" value="lf-dlq" style="text;html=1;align=center;verticalAlign=middle;resizable=0;points=[];autosize=1;strokeColor=none;fillColor=none;fontSize=10;" parent="1" vertex="1">
                    <mxGeometry x="430" y="179" width="40" height="20" as="geometry"/>
                </mxCell>
                <mxCell id="43" style="edgeStyle=orthogonalEdgeStyle;sketch=1;html=1;entryX=0.5;entryY=1;entryDx=0;entryDy=0;entryPerimeter=0;exitX=1;exitY=0.75;exitDx=0;exitDy=0;" parent="1" source="11" target="39" edge="1">
                    <mxGeometry relative="1" as="geometry">
                        <mxPoint x="340" y="260" as="sourcePoint"/>
                        <mxPoint x="365" y="121" as="targetPoint"/>
                    </mxGeometry>
                </mxCell>
                <mxCell id="45" value="categories steam -&amp;gt; to Table&lt;br&gt;&lt;br&gt;transaction stream validation -&amp;gt; error to dlq&lt;br&gt;&lt;br&gt;join on category_id&lt;br&gt;&lt;br&gt;business category goes to B other to A&lt;br&gt;" style="text;html=1;align=left;verticalAlign=middle;resizable=0;points=[];autosize=1;strokeColor=none;fillColor=none;fontSize=10;" parent="1" vertex="1">
                    <mxGeometry x="200" y="290" width="210" height="90" as="geometry"/>
                </mxCell>
            </root>
        </mxGraphModel>
    </diagram>
</mxfile>